<?xml version="1.0" encoding="UTF-8"?>
<svg id="Layer_2" data-name="Layer 2" xmlns="http://www.w3.org/2000/svg" viewBox="0 0 212.65 347.95">
  <defs>
    <style>
      .cls-1 {
        font-family: Sigmar-Regular, Sigmar;
        font-size: 24.28px;
      }

      .cls-1, .cls-2 {
        fill: #f6f0e4;
      }

      .cls-3 {
        fill: #ed495d;
      }

      .cls-4 {
        letter-spacing: .25em;
      }

      .cls-5 {
        letter-spacing: .25em;
      }

      .cls-6 {
        letter-spacing: .26em;
      }

      .cls-7 {
        letter-spacing: .25em;
      }

      .cls-8 {
        letter-spacing: .25em;
      }

      .cls-9 {
        letter-spacing: .25em;
      }
    </style>
  </defs>
  <g id="Layer_1-2" data-name="Layer 1">
    <g>
      <g>
        <g>
          <path class="cls-2" d="M58.96,243.1h-10.65c-2.49,0-4.66-.01-6.49-.04-1.83-.02-3.32-.03-4.44-.03s-2.02-.01-2.82-.04c-.8-.02-1.46-.03-1.97-.03l-6-.07c-.47,0-.91-.2-1.3-.6-.4-.4-.6-.83-.6-1.3v-23.07l-.07-3.95c-.05-2.07.01-4.02.18-5.86.16-1.83.25-4.04.25-6.63v-1.69c0-1.46.24-2.56.71-3.31.23-.42.66-.63,1.27-.63,1.22,0,2.47.01,3.74.03,1.27.02,2.61.06,4.02.11.19.05.45.07.78.07h3.07c.59,0,1.07.02,1.45.07h5.78c.89,0,1.69.18,2.4.53s1.06,1.42,1.06,3.21l-.07.56c0,.09-.01.24-.03.42-.02.19-.03.45-.03.78-.19.61-.28,1.13-.28,1.55,0,.28.02.6.07.95.05.35.12.72.21,1.09,0,.28,0,.52.03.71.02.19.03.33.03.42l.07.42v18.48c0,.42.14.67.42.74.28.07.66.11,1.13.11h5.36c.71,0,1.55,0,2.54-.03.99-.02,2.16-.03,3.53-.03.52,0,.95.15,1.3.46.35.31.53.62.53.95v14.18c0,.33-.22.61-.67.85-.45.24-.93.38-1.45.42-.61.14-1.62.21-3.03.21Z"/>
          <path class="cls-2" d="M81.62,242.8l-1.64-.21-3.14-.34-.96.07h-2.39c-.04-.18-.18-.27-.41-.27l-.96.07c-.32.04-.63.09-.92.14-.3.04-.51.07-.65.07-.09-.09-.25-.16-.48-.21h-.34s-.05-.07-.14-.07l-.21.07-.07.07c-.64,0-1.07-.18-1.3-.55-.18-.32-.32-.76-.41-1.33-.09-.57-.14-1.42-.14-2.56.04-.32.06-.68.04-1.09-.02-.41-.08-1.07-.17-1.98l-.21-2.8v-18.64c0-.78-.01-1.53-.03-2.26-.02-.73-.08-1.62-.17-2.67-.04-.41-.11-.77-.2-1.09-.05-.04-.07-.2-.07-.48.09-1.82.49-3.04,1.2-3.66.71-.62,2.06-.92,4.07-.92l.41-.14c.14-.05.29-.07.48-.07h.07s.09.02.14.07c.41,0,.66.05.75.14h.27c.18,0,.34-.07.48-.2l5.13.07c.18,0,.39-.01.62-.03.23-.02.5-.06.82-.1.27-.04.87-.07,1.78-.07,2.1,0,3.14.37,3.14,1.09v10.53c0,1.55-.02,3.28-.07,5.2-.05,1.92-.09,3.72-.14,5.4-.05,1.69-.12,3.01-.21,3.97l-.2,2.8c-.09,1.55-.16,2.19-.21,3.33-.05,1.14-.09,2.08-.14,2.8-.04.04-.07.15-.07.31v1.2c0,1.23-.16,2.22-.48,2.97-.32.75-.75,1.13-1.3,1.13l-1.57.27ZM74.24,196.94l-.41-.2c0-.09-.05-.14-.14-.14-.14,0-.23.02-.27.07-.04.05-.14.07-.27.07l-.62.14-.48-.14c-.14,0-.23-.02-.27-.07-.05-.04-.14-.07-.27-.07l-1.57-.2-.48-.2h-.34c0,.09-.05.14-.14.14-.32,0-.52-.02-.61-.07-.05-.05-.16-.07-.34-.07-.37-.23-.62-.59-.75-1.09-.05-.09-.07-.19-.07-.31s-.02-.19-.07-.24c-.05-.04-.07-.1-.07-.17s-.02-.13-.07-.17v-6.5c.04-.18.07-.46.07-.82v-1.78c0-.59-.05-1-.14-1.23v-.14s.21-.09.62-.14c.41-.04.8-.07,1.16-.07h.72c.11,0,.19.02.24.07h.96l1.37.14,1.3.41c.32.05.91.11,1.78.2.87.09,1.39.14,1.57.14.23,0,.67.07,1.33.21.66.14,1.08.18,1.27.14.23-.04.45.03.68.24.23.2.43.31.61.31.82-.14,1.66-.02,2.53.34.5.18.93.33,1.3.45.36.11.57.35.61.72l.07,2.12c.05,1.32.15,2.41.31,3.25.16.84.15,1.99-.03,3.45l-.48.48-5.81.55c-.37,0-.85.01-1.47.03-.62.02-.99.06-1.13.1-.18.05-.37.07-.55.07h-1.64Z"/>
          <path class="cls-2" d="M99.17,243.58l-.97-.14-1.32-.41c-.65-.09-1.28-.23-1.88-.41-.6-.18-1.16-.3-1.67-.34-.23-.09-.46-.18-.7-.27s-.44-.14-.63-.14c-.09-.09-.22-.19-.38-.31-.16-.11-.27-.19-.31-.24l-1.39-8.21v-.55c0-.55.14-.82.42-.82,1.44.46,2.64.83,3.61,1.13.97.3,2.11.45,3.41.45h1.46c.23,0,.39.02.49.07.79,0,1.48-.09,2.09-.27.6-.18,1.07-.34,1.39-.48.37-.14.56-.43.56-.89,0-.73-.16-1.3-.49-1.71-.32-.41-.97-.87-1.95-1.37l-1.95-.82c-.28,0-.36-.1-.24-.31.12-.21-.08-.4-.59-.58,0-.04-.02-.09-.07-.14l-.07-.07c-.14-.04-.29-.12-.45-.24-.16-.11-.38-.22-.66-.31l-.42-.14c.14,0,.21-.02.21-.07,0-.14-.07-.21-.21-.21-.05,0-.13-.07-.24-.21-.12-.14-.29-.23-.52-.27-.23-.14-.42-.28-.56-.45-.14-.16-.28-.26-.42-.31-.32-.27-.49-.52-.49-.75v-.48c-1.16,0-2.11-1.16-2.85-3.49-.28-1.09-.52-2.04-.73-2.84-.21-.8-.31-1.49-.31-2.08,0-3.46,1.46-6.28,4.38-8.45,2.92-2.16,7.04-3.48,12.37-3.93,1.9-.14,3.89-.25,5.98-.34,2.09-.09,4.05-.14,5.91-.14.32.09.6.18.84.27.23.09.44.14.63.14.79.05,1.23.25,1.32.61.09.37.23.87.42,1.5.09.37.16,1.07.21,2.12.05,1.05.12,2.44.21,4.17.14.05.21.14.21.27,0,.27-.49.59-1.46.96-.32.05-.67.1-1.04.17-.37.07-.72.1-1.04.1l-1.39.2c-1.02.14-1.99.21-2.92.21s-1.78.39-2.57,1.16c-.51.55-.76,1.08-.76,1.61s.28.9.83,1.13c.28.18.7.4,1.25.65.56.25,1.27.58,2.16.99,3.84,1.73,6.56,4.51,8.13,8.34.18.46.32.96.42,1.5.09.55.14,1.14.14,1.78,0,1.23-.16,2.32-.49,3.28-.74,2.37-2.81,4.72-6.19,7.04-2.92,2.01-5.98,3.05-9.18,3.15l-9.52.14Z"/>
          <path class="cls-2" d="M143.31,243.48l-1.67-.21-3.19-.34-.97.07h-2.43c-.05-.18-.18-.27-.42-.27l-.97.07c-.32.04-.64.09-.94.14-.3.04-.52.07-.66.07-.09-.09-.25-.16-.49-.21h-.35s-.05-.07-.14-.07l-.21.07-.07.07c-.65,0-1.09-.18-1.32-.55-.18-.32-.32-.76-.42-1.33-.09-.57-.14-1.42-.14-2.56.05-.32.06-.68.04-1.09-.02-.41-.08-1.07-.17-1.98l-.21-2.8v-19.33c0-.77-.01-1.52-.03-2.25-.02-.73-.08-1.62-.18-2.66-.05-.41-.11-.77-.21-1.09-.05-.04-.07-.2-.07-.48.09-1.82.5-3.04,1.21-3.65.72-.62,2.09-.92,4.13-.92l.42-.14c.14-.05.3-.07.49-.07h.07s.09.02.14.07c.42,0,.67.05.76.14h.28c.18,0,.35-.07.49-.2l5.21.07c.18,0,.39-.01.63-.03.23-.02.51-.06.83-.1.28-.04.88-.07,1.81-.07,2.13,0,3.19.37,3.19,1.09v10.52c0,1.55-.02,3.28-.07,5.19-.05,1.91-.09,3.71-.14,5.4-.05,1.68-.12,3.01-.21,3.96l-.21,2.8c-.09,1.55-.16,2.89-.21,4.03-.05,1.14-.09,2.07-.14,2.8-.05.04-.07.15-.07.31v1.2c0,1.23-.16,2.22-.49,2.97-.32.75-.76,1.13-1.32,1.13l-1.6.27ZM135.81,196.96l-.42-.2c0-.09-.05-.14-.14-.14-.14,0-.23.02-.28.07-.05.05-.14.07-.28.07l-.63.14-.49-.14c-.14,0-.23-.02-.28-.07-.05-.04-.14-.07-.28-.07l-1.6-.2-.49-.2h-.35c0,.09-.05.14-.14.14-.32,0-.53-.02-.62-.07-.05-.05-.16-.07-.35-.07-.37-.23-.63-.59-.76-1.09-.05-.09-.07-.19-.07-.31s-.02-.19-.07-.24c-.05-.04-.07-.1-.07-.17s-.02-.13-.07-.17v-6.49c.05-.18.07-.45.07-.82v-1.78c0-.59-.05-1-.14-1.23v-.14s.21-.09.63-.14c.42-.04.81-.07,1.18-.07h.73c.11,0,.2.02.24.07h.97l1.39.14,1.32.41c.32.05.92.11,1.8.2.88.09,1.41.14,1.6.14.23,0,.68.07,1.35.21.67.14,1.1.18,1.28.14.23-.04.46.03.7.24.23.2.44.31.62.31.83-.14,1.69-.02,2.57.34.51.18.95.33,1.32.44.37.11.58.35.62.72l.07,2.12c.05,1.32.15,2.4.31,3.25.16.84.15,1.99-.03,3.45l-.49.48-5.9.55c-.37,0-.87.01-1.49.03s-1.01.06-1.15.1c-.18.05-.37.07-.55.07h-1.67Z"/>
          <path class="cls-2" d="M164.11,244.3c-4.35.18-7.62-.72-9.79-2.7-2.18-1.98-3.36-5.11-3.54-9.39-.05-1.82.13-3.28.52-4.37.39-1.09,1.24-2.37,2.54-3.82,1.39-1.64,2.96-2.81,4.72-3.52,1.76-.71,4.12-1.08,7.08-1.13,1.16-.04,2.16-.08,3.02-.1.86-.02,1.52-.01,1.98.03,1.34.05,2.38.05,3.13,0-.14-1.41-.6-2.41-1.39-3.01-.46-.36-1.11-.62-1.94-.75-.83-.14-2.04-.23-3.61-.27h-5.55c-.46,0-.71.01-.73.03-.02.02-.24.04-.66.04h-.56l-4.1.48c-.65-.23-.97-1.12-.97-2.66v-2.43c0-.75-.05-1.95-.14-3.59.09-.32.11-.73.07-1.23l.07-1.02c.18,0,.32-.04.42-.14l.35-.41c.05-.09.11-.14.21-.14.18,0,.45-.03.8-.1.35-.07.75-.15,1.21-.24l1.53-.27c.37-.09.65-.14.83-.14,1.3-.27,2.16-.45,2.61-.55.44-.09,1.01-.16,1.7-.2,2.64-.14,5.23-.17,7.78-.1,2.54.07,4.83.22,6.84.44,2.01.23,3.48.55,4.41.96,2.87,1.14,4.97,2.79,6.32,4.95,1.34,2.16,2.06,5.13,2.15,8.91l.28,9.97c.05,1.27.09,2.4.14,3.38.05.98.07,1.65.07,2.01l.07,1.5c-.18.91-.31,1.7-.38,2.36-.07.66-.08,1.38-.03,2.15.09,1.37.03,2.31-.17,2.83-.21.52-.61.81-1.21.85l-11.25.34c-.37-.09-1.25-.11-2.64-.07-.51.05-.95.01-1.32-.1-.37-.11-.74-.24-1.11-.38-.65-.27-.97-.96-.97-2.05v-.82c0-.09.02-.16.07-.21v-.2c-.09-.09-.16-.14-.21-.14-.93,1.41-2.19,2.57-3.78,3.48-1.6.91-3.21,1.41-4.83,1.5ZM169.39,233.37c2.08,0,3.43-1.09,4.03-3.28l.07-1.3c.05-.91-.23-1.76-.83-2.56-.6-.8-1.25-1.17-1.94-1.13-.88.05-1.63.43-2.26,1.16-.63.73-.89,1.55-.8,2.46l.28,2.6c.37,1.37.86,2.05,1.46,2.05Z"/>
          <path class="cls-2" d="M47.53,274.47c0,.27.02.44.07.53v11.47c-.05.18-.09.37-.13.57-.04.2-.07.41-.07.63v.27c0,2.71-.05,4.73-.13,6.07-.09,1.33-.25,2.24-.47,2.73-.53,0-1.03.01-1.5.03-.47.02-.86.06-1.17.1h-2.07l-.13-.13h-.27s-.07.09-.07.13h-8.4s-.22.07-.53.07c-.22,0-.38-.13-.47-.4-.27-.8-.47-1.67-.6-2.6-.05-.22-.08-.53-.1-.93-.02-.4-.06-.82-.1-1.27-.44,2.05-1.66,3.66-3.63,4.83-1.98,1.18-4.57,1.77-7.77,1.77-1.73,0-3.37-.2-4.9-.6s-2.99-.96-4.37-1.67c-3.02-1.33-5.57-3.84-7.63-7.53-2.07-3.69-3.1-8.64-3.1-14.87,0-3.56.68-6.72,2.03-9.5,1.35-2.78,3.21-5.17,5.57-7.17,2.22-1.87,5.17-3.31,8.83-4.33,3.67-1.02,7.52-1.53,11.57-1.53,1.02,0,2.21.06,3.57.17,1.36.11,2.99.3,4.9.57.35,0,.89.07,1.6.2l2,.33c.75.13,1.41.26,1.97.37.56.11.99.17,1.3.17l.2.13c.05.09.13.2.27.33.22.27.4.4.53.4h.13l.13,1.2c0,.31.01.65.03,1,.02.36.05.71.1,1.07.09,1.02.17,1.87.23,2.53.07.67.1,1.27.1,1.8,0,2-.49,3.38-1.47,4.13l-7.33-1.33h-.93c-.71,0-1.39-.04-2.03-.13-.65-.09-1.41-.09-2.3,0-.05,0-.07.01-.07.03,0,.02-.02.03-.07.03-2.71,0-4.84.68-6.4,2.03-1.56,1.36-2.33,3.94-2.33,7.77,0,3.02.16,5.24.47,6.67.31,1.42.71,2.47,1.2,3.13.49.71,1.18,1.29,2.07,1.73.89.44,1.8.67,2.73.67.53,0,.89-.12,1.07-.37.18-.24.62-.65,1.33-1.23,0-.36-.01-.68-.03-.97-.02-.29-.06-.77-.1-1.43l-.07-1.27c-.04-.49-.07-1.31-.07-2.47v-4.73c0-.44.07-.73.2-.87s.36-.2.67-.2c.13.05.53.07,1.2.07h9.5c.69,0,1.17-.02,1.43-.07h1.5c.38,0,.65.02.83.07.58.09.97.28,1.17.57.2.29.3.7.3,1.23Z"/>
          <path class="cls-2" d="M72.6,298.87c-1.64,0-3.33-.1-5.07-.3-1.73-.2-3.35-.46-4.87-.77-1.24-.31-2.31-.69-3.2-1.13-.89-.44-1.7-1.07-2.43-1.87-.73-.8-1.52-1.84-2.37-3.13h-.73l-.07-1.07s-.08-.01-.1-.03c-.02-.02-.08-.03-.17-.03l-.53-1.2c-1.91-3.64-2.78-7.56-2.6-11.73.22-4.31,1.12-7.9,2.7-10.77,1.58-2.87,4.1-5.45,7.57-7.77.98-.58,1.91-.95,2.8-1.13.89-.18,1.75-.35,2.6-.53,1.16,0,2.42.02,3.8.07,1.38.05,2.75.07,4.13.07h.27c.09,0,.13.02.13.07.22-.04.56-.07,1-.07s.89.02,1.33.07c3.42.27,6.33,1.44,8.73,3.53,1.56,1.38,2.89,3.04,4,5,1.11,1.96,1.95,4.09,2.53,6.4.58,2.31.82,4.65.73,7-.05,1.73-.3,3.36-.77,4.87-.47,1.51-.94,3.05-1.43,4.6-.44,1.47-1.18,2.84-2.2,4.13-1.02,1.29-2.18,2.36-3.47,3.2l-1.47.93s-.07.03-.07-.03-.11.01-.33.24c-.09.09-.2.13-.33.13-.18.13-.58.2-1.2.2h-.4c-1.02.31-2.07.65-3.13,1.03-1.07.38-1.98.39-2.73.03-.27-.13-.52-.17-.77-.1-.25.07-.41.1-.5.1h-1.4ZM81.61,247.76c-.22.36-.42.65-.6.89-.18.24-.31.44-.4.59l-.83,1.17c-.76.95-.69.87-1.09,1.36s-.92.85-1.12,1.15c-.2.3-.46.64-.77,1.04-.44.59-.82.89-1.13.89h-2.47l-.53-.18-.2.18h-5.53c-.53,0-.88-.16-1.03-.47-.16-.31-.23-.75-.23-1.3,0-.67-.1-.75.05-1.28s.25-.96.3-1.27c.49-1.42.26-.88.62-2.21.27-1,.17-.54.77-2.1l.53-.36,2.87-.41,3.93-.18.4.18c.18-.08.4-.12.67-.12h.67c.09,0,.16.02.2.06.04.04.13.06.27.06l.4.06h1.8s.53.18.53.18c.09,0,.13-.02.13-.06h.33c.93.16,1.39.26,1.66.41.27.12.4.3.4.53,0,.16-.07.36-.2.59M72.46,290.94c.27,0,.54-.02.83-.07.29-.04.46-.07.5-.07l1.13-2.47c.05-.13.09-.28.13-.43.04-.16.07-.32.07-.5l.47-.8v-1.47c.22-.4.38-.81.47-1.23s.22-1.17.4-2.23v-1.13l.07-1.2-1.2-9.07c-.27-2.13-.89-3.29-1.87-3.47-.49-.09-.8-.18-.93-.27-.13-.09-.36-.16-.67-.2-.13-.04-.36-.11-.67-.2-.31-.09-.62,0-.93.27-.49.8-.9,1.84-1.23,3.13-.33,1.29-.5,2.51-.5,3.67v4.33c0,1.16.05,2.37.13,3.63.09,1.27.24,2.32.47,3.17.22.71.36,1.18.4,1.4.05.22.07.42.07.6,0,1.69.58,2.98,1.73,3.87,0,.49.38.73,1.13.73Z"/>
          <path class="cls-2" d="M105.51,297.74c-2.14,0-3.81-.07-5.01-.2-1.2-.13-2.25-.36-3.15-.67-.26,0-.43-.11-.51-.33-.17-.4-.26-.84-.26-1.33l-.71-11.27c-.09-1.24-.15-2.4-.19-3.47-.04-1.07-.08-2.23-.1-3.5-.02-1.27-.03-2.77-.03-4.5v-1.93l.06-2.8.13-3.33.13-2.47v-1.43c0-.2.02-.37.06-.5,0-.13.09-.2.26-.2.38,0,.77-.09,1.15-.27h.26c.09,0,.21-.02.38-.07h.35c.15,0,.27.02.35.07h10.34c.21,0,.41.02.58.07l1.99.07c.51.04.89.09,1.12.13.24.05.42.2.55.47l.51,1.87v4.4c1.03-1.78,2.89-3.64,5.59-5.6,1.11-.84,2.21-1.35,3.28-1.53,1.07-.18,1.97-.35,2.7-.53.51-.13.94-.05,1.28.23.34.29.51.72.51,1.3,0,5.56-.13,9.43-.38,11.63-.26,2.2-.73,3.28-1.41,3.23-.77-.04-1.6-.17-2.47-.37-.88-.2-1.9-.3-3.05-.3-1.76,0-3.22.48-4.4,1.43-1.18.95-1.76,2.14-1.76,3.57v16.67c0,.22-.04.36-.13.4-.04.05-.06.16-.06.33-.04.18-.15.27-.32.27.04,0-.02.04-.19.13l-.32.13c-1.67,0-3.25.07-4.75.2h-2.38Z"/>
          <path class="cls-2" d="M146.4,248.33v.87c0,.22.09.66.15.96.1.56.12.55.3,1.3.17.76.26,2.02.26,3.8.04,1.16.02.74-.06,2.45s.03,3.79-.19,6.23l-.13,1.47c-.04.22-.06.6-.06,1.13v2.8c.21-.27.48-.61.8-1.03.32-.42.67-.86,1.06-1.3.08,0,.53-.34,1.35-1.03.81-.69,1.75-1.52,2.83-2.5,1.84-1.69,3.34-3.08,4.49-4.17,1.16-1.09,2.27-2.1,3.34-3.03.3-.18.62-.21.96-.1.34.11.68.3,1.03.57.43.31.81.65,1.15,1.03s.6.68.77.9c.43.44.67.77.74.97.06.2.12.37.16.5.04.13.24.31.58.53.47.44.81.72,1.03.83.21.11.51.48.9,1.1.34.4.66.73.96,1,.3.27.53.62.71,1.07v.07c0,.22-.16.57-.48,1.03-.32.47-.91,1.08-1.77,1.83l-5.39,5.07s.01.08.03.1c.02.02-.01.1-.1.23l-.9.67c-.09.09-.26.2-.51.33-.26.13-.38.38-.38.73.26.31.51.66.77,1.03.26.38.56.68.9.9.3.13.61.47.93,1,.32.53.66,1.07,1.03,1.6s.76.91,1.19,1.13c.43.62,1.04,1.51,1.83,2.67.79,1.16,1.6,2.32,2.44,3.5.84,1.18,1.51,2.14,2.02,2.9.34.44.51.84.51,1.2,0,.44-.13.8-.39,1.07-.34.31-.6.58-.77.8s-.38.4-.64.53c-.56.05-.97.25-1.25.6-.28.36-.65.65-1.13.87-.17.05-.53.25-1.09.6-.56.36-1.08.68-1.57.97-.49.29-.72.37-.68.23l-1.15,1c-.34.22-.59.43-.74.63s-.52.41-1.12.63c-.73.58-1.48.47-2.25-.33-.04-.09-.22-.36-.55-.8-.32-.44-.64-.9-.96-1.37-.32-.47-.55-.72-.67-.77l-.71-.67-.32-.47-5.01-6.6c-.13-.27-.28-.49-.45-.67-.13-.22-.26-.39-.38-.5-.13-.11-.24-.21-.32-.3l-1.35-2.27c-.17-.13-.3-.2-.38-.2l-1.8,1.87-.19,5.07v1.93c0,.44-.01.67-.03.67-.02,0-.03.07-.03.2-.04.13-.08.27-.1.4s-.03.44-.03.93v1.67c0,.44-.11.69-.32.73-.13.13-.36.18-.71.13-.43.04-.92.07-1.48.07h-9.25c-.56,0-.86-.02-.9-.07h-.32l-2.31-.27-.19-.53v-4.2c-.04-.31-.08-.71-.1-1.2-.02-.49-.03-.93-.03-1.33l-.13-5.2c-.04-.71-.07-1.43-.1-2.17-.02-.73-.07-1.43-.16-2.1v-1.47c0-.62-.02-1.17-.06-1.63-.04-.47-.06-.85-.06-1.17v-.53c.09-.18.13-.42.13-.73v-3.63c0-.07-.02-.12-.06-.17s-.06-.16-.06-.33c0-.35.02-.6.06-.73.04-.09.06-.51.06-1.27v-18.55c-.04-.22-.08-.42-.1-.6-.02-.18-.03-.35-.03-.53v-.6c-.13-.8.26-1.31,1.15-1.53.51-.09.92-.13,1.22-.13h13.61c.47,0,.77.31.9.93l.06.73ZM148.64,266.81q.09-.09,0,0c-.09.09-.13.16-.13.2-.04,0,0-.07.13-.2Z"/>
          <path class="cls-2" d="M185.36,298.61c-4.27.18-7.47-.7-9.6-2.63-2.13-1.93-3.29-4.99-3.47-9.17-.05-1.78.12-3.2.51-4.27.39-1.07,1.21-2.31,2.49-3.73,1.36-1.6,2.9-2.75,4.63-3.43,1.72-.69,4.04-1.05,6.94-1.1,1.13-.04,2.12-.08,2.96-.1.84-.02,1.49-.01,1.94.03,1.31.05,2.34.05,3.06,0-.14-1.38-.59-2.35-1.36-2.93-.45-.35-1.09-.6-1.91-.73-.82-.13-2-.22-3.54-.27h-5.45c-.45,0-.69.01-.71.03-.02.02-.24.03-.65.03h-.54l-4.02.47c-.64-.22-.95-1.09-.95-2.6v-2.37c0-.73-.05-1.9-.14-3.5.09-.31.11-.71.07-1.2l.07-1c.18,0,.32-.05.41-.13l.34-.4c.05-.09.11-.13.2-.13.18,0,.44-.03.78-.1s.74-.14,1.19-.23l1.5-.27c.36-.09.64-.13.82-.13,1.27-.27,2.12-.44,2.55-.53.43-.09.99-.16,1.67-.2,2.59-.13,5.13-.17,7.62-.1,2.49.07,4.73.21,6.7.43,1.97.22,3.41.53,4.32.93,2.81,1.11,4.88,2.72,6.19,4.83,1.32,2.11,2.02,5.01,2.11,8.7l.27,9.73c.04,1.24.09,2.35.13,3.3.05.96.07,1.61.07,1.97l.07,1.47c-.18.89-.31,1.66-.37,2.3-.07.65-.08,1.35-.03,2.1.09,1.33.03,2.26-.17,2.77-.2.51-.6.79-1.19.83l-11.03.33c-.36-.09-1.23-.11-2.59-.07-.5.05-.93.01-1.29-.1-.36-.11-.73-.23-1.09-.37-.64-.27-.95-.93-.95-2v-.8c0-.09.02-.16.07-.2v-.2c-.09-.09-.16-.13-.2-.13-.91,1.38-2.14,2.51-3.71,3.4-1.57.89-3.14,1.38-4.73,1.47ZM190.53,287.94c2.04,0,3.36-1.07,3.95-3.2l.07-1.27c.04-.89-.23-1.72-.82-2.5-.59-.78-1.23-1.14-1.91-1.1-.86.05-1.6.42-2.21,1.13-.61.71-.88,1.51-.78,2.4l.27,2.53c.36,1.33.84,2,1.43,2Z"/>
        </g>
        <g class="cls-2">
          <path d="M347 -1 62 1Q45 1 40 23Q35 41 35 63Q35 97 34.5 134.0Q34 171 33 218Q32 267 31.0 318.5Q30 370 30 425V645Q30 654 38.5 662.5Q47 671 56 671L172 670Q183 669 198.0 669.0Q213 669 255 669Q293 669 322.0 669.0Q351 669 372 670L409 671Q440 672 464.5 672.5Q489 673 507 673Q581 673 641.0 643.5Q701 614 736 560Q785 484 785 373Q785 268 761.0 197.5Q737 127 687 83Q636 39 554.0 18.5Q472 -2 347 -1ZM356 286 349 115Q354 114 365 114Q371 114 378.5 114.5Q386 115 396 116Q399 117 401.5 117.5Q404 118 407 119Q408 120 410.5 120.0Q413 120 414 121Q430 135 443.0 171.0Q456 207 470 276Q474 301 475.5 326.0Q477 351 477 376V395Q477 424 472.0 455.0Q467 486 459.0 511.0Q451 536 442 546Q426 560 414 560Q401 560 391.0 558.0Q381 556 377 555Q376 554 365 550L364 430Q364 422 362.5 410.0Q361 398 360 382L359 358Q358 309 356 286Z" transform="translate(39.6 336.37) scale(0.02428 -0.02428)"/>
          <path d="M270 -4H112Q101 -4 97 -3Q92 -2 86.0 -1.5Q80 -1 73 0L52 5Q47 5 44 8Q44 10 44 10Q44 36 41 78Q41 94 39.5 105.0Q38 116 37 125L35 167Q34 176 34.5 187.0Q35 198 34 212L32 242Q31 261 31.5 276.0Q32 291 31 301Q31 306 30.5 313.5Q30 321 30.0 338.5Q30 356 30 390Q30 485 31.5 543.5Q33 602 37 646Q37 656 62 664Q72 665 85.5 665.5Q99 666 111 666Q152 666 181.5 666.5Q211 667 230 669Q289 670 333.0 670.5Q377 671 408 671H452Q494 671 525.0 669.0Q556 667 578 665Q593 665 601 628Q603 624 604.0 616.0Q605 608 608 591Q610 569 612.0 557.0Q614 545 616 534Q617 532 617 523Q616 522 616 515Q615 506 605 506Q603 507 594 507Q572 507 546.5 504.5Q521 502 489 500L437 496L385 491Q382 491 377 480Q374 473 371.0 470.5Q368 468 367 459L365 425Q364 412 368.0 408.0Q372 404 383 404H472Q510 404 561 398H571Q590 398 594 376L596 277V274Q596 256 562 254Q553 251 535.0 250.0Q517 249 480 249Q443 249 431.5 249.0Q420 249 415 250Q394 250 388.0 250.0Q382 250 380 249Q370 247 366.5 244.5Q363 242 363.0 231.5Q363 221 362 193Q361 189 360.5 182.5Q360 176 360 154Q420 154 454.0 155.0Q488 156 507 157Q536 158 559.5 158.5Q583 159 602 159Q605 159 610 152Q614 145 621.0 116.0Q628 87 638 37Q640 32 640 22Q640 1 621 1Q589 1 550 -2Q543 -3 530.5 -3.0Q518 -3 479 -3Q444 -3 401.5 -3.0Q359 -3 323.5 -3.5Q288 -4 270 -4ZM531 -284 521 -286Q414 -286 354 -263Q300 -244 283 -205Q278 -190 278 -173Q278 -128 292.0 -102.5Q306 -77 348 -49Q352 -45 356.5 -42.0Q361 -39 367 -35Q372 -32 376.5 -29.5Q381 -27 383 -26L463 0Q465 0 466 1Q467 1 467.5 2.5Q468 4 469 4H488L511 3Q557 3 584 0L542 -43Q516 -65 496 -100Q483 -123 483 -136Q483 -151 489.0 -158.0Q495 -165 506 -168Q508 -169 514.5 -171.0Q521 -173 527 -171Q531 -170 535.5 -170.0Q540 -170 547 -170Q586 -170 634 -153Q641 -156 641 -163V-168L624 -250Q623 -254 615.5 -258.5Q608 -263 598 -268Q583 -273 571.0 -276.5Q559 -280 551 -281Q547 -282 544.0 -282.5Q541 -283 539 -283Q533 -283 531 -284Z" transform="translate(65.3 336.37) scale(0.02428 -0.02428)"/>
          <path d="M246 -13Q182 -13 147.0 -9.5Q112 -6 85 3Q59 14 47.0 33.0Q35 52 35 84V109Q36 119 36.5 128.5Q37 138 37 158Q38 161 38.0 164.0Q38 167 38 179Q38 198 37.5 226.5Q37 255 36 293L35 353Q33 409 31.5 450.0Q30 491 30 525V570Q30 605 33 621Q36 629 36 636Q38 654 51 663Q59 666 73 666Q78 666 83.0 666.0Q88 666 93 667Q96 668 99.0 668.0Q102 668 115 668Q123 668 135.5 668.5Q148 669 165 670Q172 671 188.5 672.0Q205 673 220.5 674.0Q236 675 240 675Q281 675 329.0 673.0Q377 671 432 670Q486 670 543.5 660.5Q601 651 649.5 636.0Q698 621 723 603Q750 580 761.0 558.0Q772 536 772 506Q772 426 703 379L694 375Q692 374 690.0 373.0Q688 372 686 371Q679 369 671.0 366.0Q663 363 655 358Q650 356 645 348H646V346L648 344Q681 331 709.5 313.5Q738 296 760 275Q792 238 792 200Q792 169 774.0 136.5Q756 104 725 80Q692 54 644.5 38.5Q597 23 544.5 14.5Q492 6 443.5 1.0Q395 -4 360 -8Q326 -10 299.0 -11.5Q272 -13 246 -13ZM374 399Q378 399 385 402Q396 407 408.5 411.5Q421 416 431 422Q445 427 458 437Q464 441 468.0 444.5Q472 448 474 449L484 454L491 458Q495 458 495 464Q495 490 474.0 501.5Q453 513 406 513Q366 513 366 436V403Q366 399 374 399ZM387 153H390Q484 153 484 234Q485 244 482.0 247.5Q479 251 469 252Q454 252 449.0 252.5Q444 253 429 254Q407 255 395.5 255.5Q384 256 370 256Q363 256 362 243Q361 235 358.5 220.5Q356 206 355.5 190.5Q355 175 362.0 164.0Q369 153 387 153Z" transform="translate(87.15 336.37) scale(0.02428 -0.02428)"/>
          <path d="M103 -19 77 -23Q63 -23 56.5 -8.5Q50 6 48.5 23.5Q47 41 47 50Q47 69 46 72Q45 89 44.0 115.5Q43 142 40 178L36 222Q32 274 31.0 310.5Q30 347 30 372V651Q30 661 46.0 664.5Q62 668 83 668Q89 668 97.0 668.0Q105 668 113 667Q121 666 127.0 665.5Q133 665 137 665Q145 664 159.0 663.5Q173 663 191 663L195 666H245Q250 663 254 663H258Q260 665 271 665Q272 666 273 666H275Q279 666 283 665L290 663H351Q365 663 370.0 656.5Q375 650 375 645L378 464Q378 461 377 458L374 441Q370 420 370.0 403.5Q370 387 370 375V151L367 108Q366 93 365.0 81.0Q364 69 365 60Q365 15 354 0Q348 -9 334 -9L333 -7L328 -6Q326 -6 326 -7H321Q318 -8 316.0 -9.0Q314 -10 313 -11Q310 -11 303.0 -10.0Q296 -9 286 -7L270 -6Q265 -6 264 -11H161L131 -16Z" transform="translate(112.66999999999999 336.37) scale(0.02428 -0.02428)"/>
          <path d="M152 -5Q147 -5 143.0 -4.5Q139 -4 135 -4H90L46 7L44 14Q42 14 42 24Q41 41 40.5 58.0Q40 75 40 94Q40 108 39.5 119.0Q39 130 38 137Q38 152 38.0 163.0Q38 174 37 181V215Q32 260 30.5 315.0Q29 370 30 420L32 521Q33 529 33.0 543.0Q33 557 33 573Q33 591 33.0 604.0Q33 617 32 624Q29 647 42.0 655.0Q55 663 79 663Q92 663 98.5 663.5Q105 664 114.5 664.5Q124 665 144 665L167 666Q195 668 213.5 669.5Q232 671 239 671Q254 671 264.0 671.0Q274 671 280 666Q284 663 292.5 652.0Q301 641 303 638Q310 630 311.0 630.5Q312 631 318 622Q327 609 333.5 597.5Q340 586 346 580L481 451L514 421Q514 434 514.0 445.5Q514 457 515 464V555L518 625Q519 630 519.5 632.5Q520 635 520 636Q520 638 523 641Q524 642 526 642Q538 654 550 657Q559 660 566 660H634Q638 659 645.5 659.0Q653 659 663 659Q671 659 666.5 659.0Q662 659 657.0 658.5Q652 658 657 657H731Q757 657 767.0 649.5Q777 642 777 616L776 606L775 589Q773 586 773 574V554L776 543V513Q775 505 775.0 490.0Q775 475 775 455V382Q774 369 773.5 350.5Q773 332 773 310V63L769 23Q766 4 752 -3L736 -4L719 -3H580Q561 -4 547.0 1.5Q533 7 522 14L352 176Q352 177 345.0 184.0Q338 191 329.5 200.0Q321 209 316 214Q315 216 313.5 218.0Q312 220 311 221Q310 221 309.5 221.5Q309 222 308 222Q298 222 298 215V193Q297 188 297.0 179.5Q297 171 297 160V83Q296 77 295.0 70.0Q294 63 294 55V20L296 14Q296 12 293.5 9.0Q291 6 288 6Q284 3 274 5Q255 4 241.5 2.0Q228 0 220 -1Q211 -2 196.0 -3.0Q181 -4 168.0 -4.5Q155 -5 152 -5Z" transform="translate(128.87 336.37) scale(0.02428 -0.02428)"/>
          <path d="M743 -2Q736 -2 731.0 -1.5Q726 -1 721 0H555Q554 0 552.0 0.5Q550 1 547 2H517L474 3Q470 3 469 2Q467 0 461 0H458L457 1Q453 1 453 2Q450 3 447.0 3.0Q444 3 442 3Q440 11 437.0 32.5Q434 54 423 94L415 122H359Q343 122 331.0 123.0Q319 124 306 127Q306 123 305.0 118.0Q304 113 303 104Q296 67 289.0 39.0Q282 11 277 3Q269 3 258.0 3.0Q247 3 232 2Q217 2 213 0H204Q203 0 203 2Q202 3 200 3Q192 3 189 2V0H56Q52 -1 46.5 -1.5Q41 -2 33 -2H23Q15 -2 12 3Q5 13 5 25Q5 32 6 35Q6 40 6.0 44.5Q6 49 7 55Q9 66 12 71Q15 82 15 86Q17 98 33.5 170.5Q50 243 79.0 366.0Q108 489 147 651Q147 652 149.5 656.0Q152 660 156 662H160L162 660Q167 660 169.5 662.0Q172 664 175 665Q183 667 187 667Q194 667 200.5 666.5Q207 666 214 665Q216 665 219.0 665.5Q222 666 224 664Q226 663 230.5 662.5Q235 662 239 662Q239 664 244.0 664.5Q249 665 251 665Q260 666 272.0 666.5Q284 667 304 667H399Q399 666 408 666Q413 666 416.5 666.0Q420 666 424 665H474Q476 664 478.5 663.0Q481 662 483 662Q488 662 493.5 662.5Q499 663 504 664Q509 665 514.5 665.0Q520 665 522 665Q533 666 542.0 666.5Q551 667 561 667Q567 667 573.0 668.0Q579 669 586 665Q594 661 600.5 660.5Q607 660 612 660Q616 660 616 662H620Q623 661 626.0 656.5Q629 652 629 651Q639 613 652.0 559.5Q665 506 679.5 445.0Q694 384 709.0 321.0Q724 258 738.0 200.5Q752 143 762 97Q764 87 764.5 83.0Q765 79 766 74Q767 67 771.5 51.0Q776 35 776 27Q776 19 772 18Q768 -2 755 -2ZM318 241Q324 241 324 243H330Q332 244 337.0 246.0Q342 248 349 248H350L357 243H404L397 288L393 307Q391 318 389.0 325.5Q387 333 387 340Q387 345 384.0 366.5Q381 388 377 416L373 444Q370 453 368.5 461.0Q367 469 366 476L364 488V493Q362 495 362 498Q362 502 361 502V498Q361 494 357 488V476Q355 468 354.0 460.0Q353 452 351 444L342 397Q334 357 330.0 318.0Q326 279 318 241Z" transform="translate(154.47 336.37) scale(0.02428 -0.02428)"/>
        </g>
      </g>
      <path class="cls-3" d="M188.91,24.87c-1.91-5.22-24.53-4.98-42.9,5.53-3.47,1.98-24.58,14.52-22.82,28.33,1,7.82,8.44,9,16.45,18.59,16.8,20.12,13.52,50.24,11.07,50.73-2.05.41-.69-19.65-15.2-34.62-20.74-21.39-56.87-14.79-58.8-26.56-.25-1.54.08-3.6,1.97-6.22,7.17-9.04,19.87-9.22,27.77-13.33,4.24-2.2,9.67-6.12,14.77-13.67,1.05-1.56-.05-3.66-1.92-3.71-6.09-.17-17.18-1.4-24.27-5.94-7.75-4.96-5.91-10.89-4.01-20.13.16-.79-.58-1.48-1.36-1.26-7.34,2.08-11.21,3.89-14.24,6.18-1.88-3.24-2.61-5.9-3.22-8.01-.23-.81-1.26-1.04-1.82-.42-9.63,10.62-14.27,17.59-16.68,25.55-.72,2.01-1.52,4.43-2.3,7.19-4.79,16.89-5.06,33.05-.28,67.18,1.9,13.57,4.69,30.58,8.88,50.16.31,1.47,1.62,2.52,3.12,2.52h11.23c.6,0,1.05-.56.9-1.15-2.21-8.94-9.35-40.17-.3-44.63,2.15-1.06,4.4-.21,4.6-.13,10.03,3.94,5.65,36.96,4.47,44.86-.08.56.35,1.06.92,1.06h13.28c.55,0,.97-.48.92-1.03-1.29-12.47,4.04-22.63,11.1-24.67,9.53-2.76,21.09,9.58,20.65,10.37-.14.26-1.64-.62-5.13-1.12-.94-.13-3.53-.49-5.78-.24-4.16.48-9.48,3.31-11.09,8.5-1.11,3.54-.04,6.76.56,8.19h40.11c5.73,0,10.47-4.39,11-10.1.47-5.07,1.37-11,3.06-17.45,7.03-26.9,20.01-35.17,17.27-51.81-2.01-12.2-10.81-13.79-9.72-24.08,1.53-14.34,19.55-19.75,17.76-24.65ZM85.17,26.43c2.17.11,3.85,1.95,3.74,4.13-.11,2.17-1.95,3.85-4.13,3.74s-3.85-1.95-3.74-4.13c.11-2.17,1.95-3.85,4.13-3.74Z"/>
    </g>
  </g>
</svg>